<?xml version="1.0" encoding="utf-8"?>
<!-- Generator: Adobe Illustrator 25.2.1, SVG Export Plug-In . SVG Version: 6.00 Build 0)  -->
<svg version="1.1" id="Layer_1" xmlns="http://www.w3.org/2000/svg" xmlns:xlink="http://www.w3.org/1999/xlink" x="0px" y="0px"
	 viewBox="0 0 300 80" style="enable-background:new 0 0 300 80;" xml:space="preserve">
<style type="text/css">
	.st0{fillRule:evenodd;clip-rule:evenodd;fill:#981312;}
	.st1{fillRule:evenodd;clip-rule:evenodd;fill:#FFFFFF;filter:url(#Adobe_OpacityMaskFilter);}
	.st2{mask:url(#mask0_1_);}
	.st3{fillRule:evenodd;clip-rule:evenodd;fill:#FF6E6C;}
	.st4{fillRule:evenodd;clip-rule:evenodd;fill:#C22A29;}
	.st5{filRule:evenodd;clip-rule:evenodd;fill:#FFFFFF;filter:url(#Adobe_OpacityMaskFilter_1_);}
	.st6{mask:url(#mask0_2_);}
	.st7{fillRule:evenodd;clip-rule:evenodd;fill:#FFFFFF;filter:url(#Adobe_OpacityMaskFilter_2_);}
	.st8{mask:url(#mask1_2_);}
</style>
<path class="st0" d="M511.6,14.9l3.7-3.3l0.2-2.6l-2.8,2.8L511.6,14.9z"/>
<defs>
	<filter id="Adobe_OpacityMaskFilter" filterUnits="userSpaceOnUse" x="506.8" y="3.1" width="15.4" height="10.3">
		<feColorMatrix  type="matrix" values="1 0 0 0 0  0 1 0 0 0  0 0 1 0 0  0 0 0 1 0"/>
	</filter>
</defs>
<mask maskUnits="userSpaceOnUse" x="506.8" y="3.1" width="15.4" height="10.3" id="mask0_1_">
	<path class="st1" d="M506.8,3.1h15.4v10.3h-15.4V3.1z"/>
</mask>
<g class="st2">
	<path class="st3" d="M513.5,11.2c0.1,1.3,4.1,3.8,6.9,1c1.6-1.6,1.8-9.1,1.8-9.1s-13,3.4-14.9,5.3c-0.7,0.7-1.3,3,4.2,2.4
		C511.5,10.8,513.4,9.9,513.5,11.2z"/>
</g>
<path class="st4" d="M520.4,5.4l-8.7,5.3v4.2l1.8-3.5L520.4,5.4z"/>
<path class="st3" d="M242.6,42.9c-0.2,0-0.3-0.2-0.3-0.3c0-0.1,0-0.3,0-0.4c0-1.1-0.2-2.4-0.4-3.9c-0.1-0.2,0.1-0.3,0.2-0.3
	c0.2-0.1,0.3,0.1,0.3,0.2c0.3,1.5,0.5,2.9,0.5,4c0,0.2,0,0.3,0,0.4C242.8,42.7,242.7,42.9,242.6,42.9z M241.2,35
	c-0.1,0-0.2-0.1-0.3-0.2c-0.4-1.4-1-2.8-1.5-4.2c-0.1-0.2,0-0.3,0.1-0.4c0.2-0.1,0.3,0,0.4,0.2c0.6,1.4,1.1,2.8,1.6,4.2
	c0.1,0.2-0.1,0.3-0.2,0.4C241.2,35,241.2,35,241.2,35z M237.7,33c-1.1,0-2.2-0.1-3.2-0.2c-0.2,0-0.3-0.2-0.2-0.3
	c0-0.2,0.1-0.3,0.3-0.3c1.3,0.1,2.8,0.2,4.3,0.1c0.1,0,0.3,0.1,0.3,0.3c0,0.2-0.1,0.3-0.3,0.3C238.4,33,238.1,33,237.7,33z
	 M242.2,32.8c-0.2,0-0.3-0.1-0.3-0.3c0-0.2,0.1-0.3,0.2-0.3c1.3-0.2,2.8-0.4,4.2-0.7c0.2-0.1,0.3,0.1,0.3,0.2
	c0.1,0.2-0.1,0.3-0.2,0.3C245,32.4,243.6,32.6,242.2,32.8z M231.1,32.4C231.1,32.4,231.1,32.4,231.1,32.4c-1.5-0.3-2.9-0.7-4.2-1.3
	c-0.2-0.1-0.2-0.2-0.2-0.4c0.1-0.2,0.2-0.2,0.3-0.2c1.2,0.5,2.6,1,4,1.2c0.2,0.1,0.2,0.2,0.2,0.3C231.4,32.3,231.3,32.4,231.1,32.4z
	 M249.7,31.3c-0.1,0-0.2-0.1-0.3-0.2c-0.1-0.2,0.1-0.3,0.2-0.3c1.4-0.4,2.7-0.8,4.1-1.3c0.2-0.1,0.3,0.1,0.3,0.2
	c0.1,0.2,0,0.3-0.2,0.4c-1.3,0.5-2.7,0.9-4.1,1.3C249.8,31.3,249.7,31.3,249.7,31.3z M224,29.5c-0.1,0-0.1,0-0.2-0.1
	c-1.3-0.9-2.4-1.9-3.2-3c-0.1-0.1-0.1-0.3,0.1-0.4c0.1-0.1,0.3-0.1,0.4,0.1c0.8,1.1,1.8,2,3.1,2.9c0.1,0.1,0.2,0.3,0.1,0.4
	C224.2,29.5,224.1,29.5,224,29.5z M257,28.7c-0.1,0-0.2-0.1-0.3-0.2c-0.1-0.2,0-0.3,0.2-0.4c1.4-0.6,2.6-1.2,3.8-1.9
	c0.1-0.1,0.3,0,0.4,0.1c0.1,0.2,0,0.3-0.1,0.4c-1.2,0.7-2.5,1.3-3.9,2C257,28.7,257,28.7,257,28.7z M238.1,27.5
	c-0.1,0-0.2-0.1-0.2-0.2c-0.7-1.3-1.5-2.6-2.3-3.7c-0.1-0.1-0.1-0.3,0.1-0.4c0.1-0.1,0.3-0.1,0.4,0.1c0.8,1.1,1.6,2.4,2.4,3.8
	c0.1,0.1,0.1,0.3-0.1,0.4C238.2,27.5,238.1,27.5,238.1,27.5z M219.3,23.4c-0.1,0-0.2-0.1-0.3-0.2c-0.1-0.4-0.2-0.9-0.2-1.3
	c0-0.1,0-0.2,0-0.3c0-0.9,0.3-1.9,1-2.9c0.1-0.1,0.3-0.2,0.4-0.1c0.1,0.1,0.2,0.3,0.1,0.4c-0.6,0.8-0.8,1.7-0.8,2.5
	c0,0.1,0,0.2,0,0.2c0.1,0.4,0.1,0.8,0.2,1.3C219.6,23.2,219.5,23.4,219.3,23.4L219.3,23.4z M233.4,21.2c-0.1,0-0.1,0-0.2-0.1
	c-1.1-1.1-2.2-2-3.4-2.6c-0.1-0.1-0.2-0.3-0.1-0.4c0.1-0.2,0.2-0.2,0.4-0.1c1.2,0.7,2.4,1.6,3.5,2.7c0.1,0.1,0.1,0.3,0,0.4
	C233.6,21.2,233.5,21.2,233.4,21.2z M226.9,17.2L226.9,17.2c-1.2-0.3-2.3-0.4-3.5-0.3c-0.2,0-0.4,0.1-0.6,0.1
	c-0.2,0.1-0.3-0.1-0.3-0.2c-0.1-0.2,0.1-0.3,0.2-0.3c0.2-0.1,0.4-0.1,0.7-0.1c1.2-0.1,2.5,0,3.7,0.3c0.2,0.1,0.2,0.2,0.2,0.3
	C227.1,17.1,227,17.2,226.9,17.2z"/>
<path class="st0" d="M264.6,29.3l7-6.2l0.4-4.9l-5.3,5.3L264.6,29.3z"/>
<defs>
	<filter id="Adobe_OpacityMaskFilter_1_" filterUnits="userSpaceOnUse" x="255.6" y="7.3" width="29" height="19.4">
		<feColorMatrix  type="matrix" values="1 0 0 0 0  0 1 0 0 0  0 0 1 0 0  0 0 0 1 0"/>
	</filter>
</defs>
<mask maskUnits="userSpaceOnUse" x="255.6" y="7.3" width="29" height="19.4" id="mask0_2_">
	<path class="st5" d="M255.6,7.2h29v19.4h-29V7.2z"/>
</mask>
<g class="st6">
	<path class="st3" d="M268.2,22.4c0.2,2.4,7.7,7.1,12.9,2c3-3,3.5-17.1,3.5-17.1s-24.6,6.3-28.1,10c-1.3,1.3-2.5,5.7,8,4.4
		C264.4,21.8,268,20,268.2,22.4z"/>
</g>
<path class="st4" d="M281.1,11.5l-16.4,10v7.9l3.4-6.6L281.1,11.5z"/>
<path class="st3" d="M242.9,46.5c-0.7,0-0.8,1-0.8,2c0,7.5-10,22.2-24.1,22.2c-4.2,0-5.3-4.9-4.6-10.3c0.7,0.8,2,1.4,3.9,1.4
	c9.6,0,11.7-7.2,11.7-11.4c0-4.8-4.8-5.6-6.5-5.6c-9.6,0.1-15.2,7.7-16.3,15.3c-2.9,4.4-7.3,10.2-10.9,10.2
	c-2.9,0,0.4-13.7,3.3-24.5c3.9-0.1,7.6-0.3,8.7-0.3c2.7,0,3.6-2.5,3.5-3.4c-0.2-0.9-2.7-0.9-8.7-0.6c-0.8,0.1-1.6,0.1-2.4,0.1
	c1.2-4.3,2-7.5,2-8.2c0-1.3-0.9-2.1-1.8-2.3c-0.8-0.1-1.7,0.2-2.1,0.3c-1.7,0.8-3.5,4.6-5.2,10c-2.3-0.1-3.9-0.3-3.9-0.3
	c-2.2-0.2-2.8,1.2-2.7,2.3c0.1,1,0.4,1.7,1,2.1c0.3,0.2,2.1,0.3,4.4,0.3c-0.4,1.8-0.8,3.7-1.2,5.7c-0.5,2.7-0.9,5.4-1.2,8
	c-2.2,3.6-7.4,11.2-11.8,10.8c-3.2-0.2-0.1-12,2-19.6c0,0,0.8-2.6,0.8-3.5c0.2-1.5-1-2.6-2.1-2.6c-1.1,0-3.5,0.2-5.3,5.3
	c-2,5.8-7.6,20.8-13.3,20.4c-3.2-0.3,0.6-14.6,2-19.6c1.1-3.8-0.7-6.4-4.1-6.4c-5.4,0-10.2,11.2-16,19.4c4.1-8.9,4-19.9-4.4-19.9
	c-9.6,0-14.8,10.7-16.4,14.5c0.6-5.2,1.8-10.8,3.3-16c15.2-0.7,22.2-10,22.2-17.5c0-7.7-6.2-8.7-7.8-8.7c-9.6,0-15.5,9.4-19.2,20.4
	c-4.4-1.1-7-3.1-8.4-5c2.2-0.7,3.6-2.9,3.6-4.7c0-2.6-1.8-5.1-4.5-5.1c-4.6,0-6,4.1-6,6.9c0,2.8,2.8,11.3,13.8,13.2
	c-1.7,6.4-2.7,12.9-3.4,18.1c-2.3,3.8-7,10.4-11.1,10.1c-4.5-0.3,3.3-22.5,3.5-24.9c0.1-1.4-1-2.6-2.4-2.7c-1.4,0-2.4,0.6-4,3.9
	c-1.7,3.5-3.4,8.6-4.1,12.6v0.1c-2.9,5.3-6.9,10.9-11.2,10.9c-4.8,0,3.8-14.3,3.9-20.7c0.1-1.9-0.9-3-2.7-3c-6.6,0-9.6-1.6-12.5-3
	c-1.2-0.6-1.5-1.6-2.8-1.6c-1.1,0-1.7,0.7-1.7,1.5c-0.8,14.3-5.4,23.7-9.2,27.6c-0.7,0.7-2.3,1.7-2.4,2.5c-0.1,1,1.2,1.5,2.3,1.5
	c4.2,0,11.2-17.2,11-28.2c2,2.4,5.5,4.9,10.1,5.7c-2.9,7.6-5.6,22.4,2.1,22.4c4.4,0,9.8-5.3,12.7-11.1c-0.3,5.7,1.2,10.8,5.6,11.1
	c5.9,0.4,10.5-6.5,12.7-10.7c-0.3,3.7-0.4,6.2-0.4,6.7c0,1.1,0.2,4,2.3,4c2.8,0,4.1-3.6,4.5-7.1v-0.1c0-0.2,0.1-0.3,0.1-0.5
	c1-10.1,10-19.7,14.4-19.7c3.3,0,4.2,3.8,2.7,10.2c-1.4,5.9-6.3,18.2-13.7,12.4c-1.3-1-2.2-1.3-2.6-0.6c-0.6,1.1,0.8,2.7,2.5,3.8
	c1.7,1.1,3.5,1.6,5.2,1.6c0.1,0,0.3,0,0.4,0c13.5,0,22.8-26.8,25.9-26.4c1.3,0.2-1.1,5.6-2.2,10.6c-2.3,11.3-0.2,15.8,4.9,15.8
	c5.4,0,10-7.9,12.6-13.6c-1.1,6.8,0.8,13.6,5.3,13.6c7.1,0,12.1-8.8,13.6-11.7c-0.3,6.7,0.8,11.7,4.5,11.7c5.1,0,10-6.8,12.8-11.6
	c0.2,6.2,3.4,11.6,10,11.6c12.5,0,28.5-14.7,28.5-26C244.5,48.4,244.1,46.5,242.9,46.5z M110.2,26c0.5,0,1,0.7,1,1.4
	c0,1.3-0.8,2.2-1.7,2.9c-0.5-1-0.7-1.9-0.7-2.5C108.9,26.9,109.2,26,110.2,26z M138,19.6c3.3,0,4.9,2.7,4.9,5.5
	c0,3.5-1.7,13.2-17.7,12.5C128.8,27.5,133.6,19.6,138,19.6z M221.9,46.9c1.8,0,2.3,1.5,2.3,3.3c0,2.8-2.3,9-7.3,9
	c-1.5,0.1-2.5-0.3-3.2-0.7C215,52.7,218.2,46.9,221.9,46.9z"/>
<defs>
	<filter id="Adobe_OpacityMaskFilter_2_" filterUnits="userSpaceOnUse" x="12.8" y="6.8" width="81.8" height="68.3">
		<feColorMatrix  type="matrix" values="1 0 0 0 0  0 1 0 0 0  0 0 1 0 0  0 0 0 1 0"/>
	</filter>
</defs>
<mask maskUnits="userSpaceOnUse" x="12.8" y="6.8" width="81.8" height="68.3" id="mask1_2_">
	<path class="st7" d="M12.8,6.8h81.8v68.3H12.8V6.8z"/>
</mask>
<g class="st8">
	<path class="st3" d="M82.7,35.3c7,0,11.8-5,11.8-9.7c0-1.7-0.6-3.2-1.2-3.4c-0.8-0.3-1.2,0.5-1.2,1.4c0,2.6-2,5.8-7.9,5.7
		c-8.8,0-38.7-22.4-57.3-22.5c-8.8,0-14,6.6-14,13.2c0,6.7,5.2,12.3,12.8,12.3c7.2,0,10.2-4.9,10.2-8.8c0-3.8-2.6-6.4-5.3-6.4
		c-3.1,0.1-4.3,2.8-4.3,4.4c0,2.2,1.6,2.9,1.6,4.2c0,2-1.7,3.1-3.2,3.1c-4.4,0-7.6-4.3-7.6-8.1v-0.1c0-5.2,2.6-10.7,9.9-10.7
		c6.4,0,17.1,6.6,27.9,13.1c-9.5,16.2-7.1,48.5-18.9,48.5c-3.8,0-5.3-3.6-6.8-2.1c-1.3,1.4,3.1,5.5,6.8,5.5c6.5,0,10.5-5.2,10.5-5.2
		c8.4-8.2,8.5-30.2,12.8-44.2C68,30.9,76.6,35.2,82.7,35.3z"/>
</g>
</svg>
